<mxfile host="Electron" modified="2025-06-05T12:43:24.544Z" agent="Mozilla/5.0 (Windows NT 10.0; Win64; x64) AppleWebKit/537.36 (KHTML, like Gecko) draw.io/24.5.3 Chrome/124.0.6367.207 Electron/30.0.6 Safari/537.36" etag="KU-tI-ncFCcspA1gNpvD" version="24.5.3" type="device">
  <diagram id="C5RBs43oDa-KdzZeNtuy" name="Page-1">
    <mxGraphModel dx="1134" dy="796" grid="1" gridSize="10" guides="1" tooltips="1" connect="1" arrows="1" fold="1" page="1" pageScale="1" pageWidth="827" pageHeight="1169" math="0" shadow="0">
      <root>
        <mxCell id="WIyWlLk6GJQsqaUBKTNV-0" />
        <mxCell id="WIyWlLk6GJQsqaUBKTNV-1" parent="WIyWlLk6GJQsqaUBKTNV-0" />
        <mxCell id="HNEOvHBbbS2R3KsobmLf-16" value="A lépés lehet, hogy tovább tart" style="rounded=1;whiteSpace=wrap;html=1;dashed=1;dashPattern=12 12;" parent="WIyWlLk6GJQsqaUBKTNV-1" vertex="1">
          <mxGeometry x="135" y="200" width="120" height="60" as="geometry" />
        </mxCell>
        <mxCell id="tL_yiyPzyIA1yR_fyeaR-5" value="" style="rounded=1;whiteSpace=wrap;html=1;dashed=1;dashPattern=12 12;" vertex="1" parent="WIyWlLk6GJQsqaUBKTNV-1">
          <mxGeometry x="580" y="1320" width="200" height="60" as="geometry" />
        </mxCell>
        <mxCell id="HNEOvHBbbS2R3KsobmLf-29" value="" style="rounded=1;whiteSpace=wrap;html=1;dashed=1;dashPattern=12 12;" parent="WIyWlLk6GJQsqaUBKTNV-1" vertex="1">
          <mxGeometry x="570" y="1250" width="360" height="60" as="geometry" />
        </mxCell>
        <mxCell id="HNEOvHBbbS2R3KsobmLf-10" value="" style="rounded=1;whiteSpace=wrap;html=1;dashed=1;dashPattern=12 12;" parent="WIyWlLk6GJQsqaUBKTNV-1" vertex="1">
          <mxGeometry x="290" y="870" width="140" height="60" as="geometry" />
        </mxCell>
        <mxCell id="HNEOvHBbbS2R3KsobmLf-0" value="páciens1 befekszik a kamerába" style="rounded=1;whiteSpace=wrap;html=1;" parent="WIyWlLk6GJQsqaUBKTNV-1" vertex="1">
          <mxGeometry x="50" y="570" width="120" height="60" as="geometry" />
        </mxCell>
        <mxCell id="HNEOvHBbbS2R3KsobmLf-4" value="" style="endArrow=none;html=1;rounded=0;entryX=1;entryY=0;entryDx=0;entryDy=0;" parent="WIyWlLk6GJQsqaUBKTNV-1" target="HNEOvHBbbS2R3KsobmLf-0" edge="1">
          <mxGeometry width="50" height="50" relative="1" as="geometry">
            <mxPoint x="170" y="780" as="sourcePoint" />
            <mxPoint x="440" y="740" as="targetPoint" />
          </mxGeometry>
        </mxCell>
        <mxCell id="HNEOvHBbbS2R3KsobmLf-5" value="&lt;div&gt;operátor elindítja a&amp;nbsp;SPECT&amp;nbsp; gyűjtést&amp;nbsp;&lt;/div&gt;" style="rounded=1;whiteSpace=wrap;html=1;" parent="WIyWlLk6GJQsqaUBKTNV-1" vertex="1">
          <mxGeometry x="170" y="630" width="230" height="100" as="geometry" />
        </mxCell>
        <mxCell id="HNEOvHBbbS2R3KsobmLf-6" value="&lt;div&gt;operátor előkészíti a páciens2-t (adattok felvétele)&lt;/div&gt;" style="rounded=1;whiteSpace=wrap;html=1;" parent="WIyWlLk6GJQsqaUBKTNV-1" vertex="1">
          <mxGeometry x="220" y="870" width="120" height="60" as="geometry" />
        </mxCell>
        <mxCell id="HNEOvHBbbS2R3KsobmLf-7" value="Ez itt igaz, hogy nem kell a lépés végéig várni, hogy induljon a kövi?" style="rhombus;whiteSpace=wrap;html=1;" parent="WIyWlLk6GJQsqaUBKTNV-1" vertex="1">
          <mxGeometry x="220" y="730" width="130" height="140" as="geometry" />
        </mxCell>
        <mxCell id="HNEOvHBbbS2R3KsobmLf-8" value="" style="endArrow=none;html=1;rounded=0;entryX=1;entryY=0;entryDx=0;entryDy=0;" parent="WIyWlLk6GJQsqaUBKTNV-1" edge="1">
          <mxGeometry width="50" height="50" relative="1" as="geometry">
            <mxPoint x="400" y="1160" as="sourcePoint" />
            <mxPoint x="400" y="630" as="targetPoint" />
          </mxGeometry>
        </mxCell>
        <mxCell id="HNEOvHBbbS2R3KsobmLf-9" value="&lt;div&gt;Felvétel vége és az operátor betölti a reknsturált képeket, fúzionálja, stb: Ideális esetben a távozás előtt legyenek meg a rekon felvételek (3 percen belül, akár MPH-ra is) ellenőrzés céljából&lt;/div&gt;&lt;div&gt;&lt;br&gt;&lt;/div&gt;" style="rounded=1;whiteSpace=wrap;html=1;" parent="WIyWlLk6GJQsqaUBKTNV-1" vertex="1">
          <mxGeometry x="400" y="990" width="250" height="120" as="geometry" />
        </mxCell>
        <mxCell id="HNEOvHBbbS2R3KsobmLf-11" value="" style="endArrow=none;html=1;rounded=0;entryX=1;entryY=0;entryDx=0;entryDy=0;dashed=1;dashPattern=12 12;" parent="WIyWlLk6GJQsqaUBKTNV-1" edge="1">
          <mxGeometry width="50" height="50" relative="1" as="geometry">
            <mxPoint x="430" y="1100" as="sourcePoint" />
            <mxPoint x="430" y="870" as="targetPoint" />
          </mxGeometry>
        </mxCell>
        <mxCell id="HNEOvHBbbS2R3KsobmLf-14" value="Kérdés" style="rhombus;whiteSpace=wrap;html=1;" parent="WIyWlLk6GJQsqaUBKTNV-1" vertex="1">
          <mxGeometry x="30" y="110" width="80" height="80" as="geometry" />
        </mxCell>
        <mxCell id="HNEOvHBbbS2R3KsobmLf-15" value="Lépés" style="rounded=1;whiteSpace=wrap;html=1;" parent="WIyWlLk6GJQsqaUBKTNV-1" vertex="1">
          <mxGeometry x="20" y="200" width="120" height="60" as="geometry" />
        </mxCell>
        <mxCell id="HNEOvHBbbS2R3KsobmLf-17" value="" style="endArrow=none;html=1;rounded=0;entryX=1;entryY=0;entryDx=0;entryDy=0;" parent="WIyWlLk6GJQsqaUBKTNV-1" edge="1" target="HNEOvHBbbS2R3KsobmLf-15">
          <mxGeometry width="50" height="50" relative="1" as="geometry">
            <mxPoint x="140" y="380" as="sourcePoint" />
            <mxPoint x="140" y="310" as="targetPoint" />
          </mxGeometry>
        </mxCell>
        <mxCell id="HNEOvHBbbS2R3KsobmLf-18" value="Ez jelöli, hogy ezen lépés&amp;nbsp;&lt;div&gt;vége triggereli a kövi lépést&lt;/div&gt;" style="edgeLabel;html=1;align=center;verticalAlign=middle;resizable=0;points=[];" parent="HNEOvHBbbS2R3KsobmLf-17" vertex="1" connectable="0">
          <mxGeometry y="-3" relative="1" as="geometry">
            <mxPoint x="-3" y="20" as="offset" />
          </mxGeometry>
        </mxCell>
        <mxCell id="HNEOvHBbbS2R3KsobmLf-19" value="" style="endArrow=none;html=1;rounded=0;dashed=1;dashPattern=12 12;" parent="WIyWlLk6GJQsqaUBKTNV-1" edge="1">
          <mxGeometry width="50" height="50" relative="1" as="geometry">
            <mxPoint x="260" y="500" as="sourcePoint" />
            <mxPoint x="255" y="200" as="targetPoint" />
          </mxGeometry>
        </mxCell>
        <mxCell id="HNEOvHBbbS2R3KsobmLf-20" value="Ez jelöli, ugyanaz,&amp;nbsp;&lt;div&gt;mint a teli vonal,&amp;nbsp;&lt;div&gt;csak a szaggatott&amp;nbsp;&lt;/div&gt;&lt;div&gt;dobozokhoz tartozóan.&amp;nbsp;&lt;/div&gt;&lt;div&gt;&lt;br&gt;&lt;/div&gt;&lt;div&gt;A &quot;lehet, hogy tovább&amp;nbsp;&lt;/div&gt;&lt;div&gt;tart&quot; lépés vége,&amp;nbsp;&lt;/div&gt;&lt;div&gt;ami triggeli a kövi lépést&lt;/div&gt;&lt;/div&gt;" style="edgeLabel;html=1;align=center;verticalAlign=middle;resizable=0;points=[];" parent="HNEOvHBbbS2R3KsobmLf-19" vertex="1" connectable="0">
          <mxGeometry y="-3" relative="1" as="geometry">
            <mxPoint x="-5" y="70" as="offset" />
          </mxGeometry>
        </mxCell>
        <mxCell id="HNEOvHBbbS2R3KsobmLf-21" value="1, A &quot;Felvétel vége&quot; a második lépésben említett&amp;nbsp; gyűjtés + rekon?&lt;div&gt;&lt;br&gt;&lt;/div&gt;" style="rhombus;whiteSpace=wrap;html=1;" parent="WIyWlLk6GJQsqaUBKTNV-1" vertex="1">
          <mxGeometry x="440" y="840" width="140" height="150" as="geometry" />
        </mxCell>
        <mxCell id="HNEOvHBbbS2R3KsobmLf-22" value="Szerintem így van, de ez nem biztos" style="rounded=0;whiteSpace=wrap;html=1;" parent="WIyWlLk6GJQsqaUBKTNV-1" vertex="1">
          <mxGeometry x="60" y="1160" width="720" height="20" as="geometry" />
        </mxCell>
        <mxCell id="HNEOvHBbbS2R3KsobmLf-23" value="SPECT gyűjtés vége" style="rounded=1;whiteSpace=wrap;html=1;" parent="WIyWlLk6GJQsqaUBKTNV-1" vertex="1">
          <mxGeometry x="400" y="1190" width="120" height="60" as="geometry" />
        </mxCell>
        <mxCell id="HNEOvHBbbS2R3KsobmLf-24" value="Páciens1 távozik" style="rounded=1;whiteSpace=wrap;html=1;" parent="WIyWlLk6GJQsqaUBKTNV-1" vertex="1">
          <mxGeometry x="520" y="1250" width="240" height="60" as="geometry" />
        </mxCell>
        <mxCell id="HNEOvHBbbS2R3KsobmLf-25" value="" style="endArrow=none;html=1;rounded=0;entryX=1;entryY=0;entryDx=0;entryDy=0;" parent="WIyWlLk6GJQsqaUBKTNV-1" target="HNEOvHBbbS2R3KsobmLf-23" edge="1">
          <mxGeometry width="50" height="50" relative="1" as="geometry">
            <mxPoint x="520" y="1610" as="sourcePoint" />
            <mxPoint x="460" y="1130" as="targetPoint" />
          </mxGeometry>
        </mxCell>
        <mxCell id="HNEOvHBbbS2R3KsobmLf-26" value="NonAC SPECT Rekon elindul" style="rounded=1;whiteSpace=wrap;html=1;" parent="WIyWlLk6GJQsqaUBKTNV-1" vertex="1">
          <mxGeometry x="520" y="1320" width="120" height="60" as="geometry" />
        </mxCell>
        <mxCell id="HNEOvHBbbS2R3KsobmLf-27" value="" style="endArrow=none;html=1;rounded=0;entryX=1;entryY=0;entryDx=0;entryDy=0;" parent="WIyWlLk6GJQsqaUBKTNV-1" edge="1">
          <mxGeometry width="50" height="50" relative="1" as="geometry">
            <mxPoint x="940" y="2100" as="sourcePoint" />
            <mxPoint x="940" y="1730" as="targetPoint" />
          </mxGeometry>
        </mxCell>
        <mxCell id="HNEOvHBbbS2R3KsobmLf-28" value="Rekon vége, operátor betölti a reknsturált képeket, fúzionálja, stb: Ideális esetben a távozás előtt legyenek meg a rekon felvételek (3 percen belül, akár MPH-ra is) ellenőrzés céljából" style="rounded=1;whiteSpace=wrap;html=1;" parent="WIyWlLk6GJQsqaUBKTNV-1" vertex="1">
          <mxGeometry x="940" y="1790" width="220" height="110" as="geometry" />
        </mxCell>
        <mxCell id="HNEOvHBbbS2R3KsobmLf-30" value="" style="endArrow=none;html=1;rounded=0;entryX=1;entryY=0;entryDx=0;entryDy=0;" parent="WIyWlLk6GJQsqaUBKTNV-1" edge="1">
          <mxGeometry width="50" height="50" relative="1" as="geometry">
            <mxPoint x="1160" y="2010" as="sourcePoint" />
            <mxPoint x="1160" y="1790" as="targetPoint" />
          </mxGeometry>
        </mxCell>
        <mxCell id="HNEOvHBbbS2R3KsobmLf-31" value="&lt;div&gt;Páciens 2 befekszik a kamerába&lt;/div&gt;" style="rounded=1;whiteSpace=wrap;html=1;" parent="WIyWlLk6GJQsqaUBKTNV-1" vertex="1">
          <mxGeometry x="1160" y="1890" width="120" height="60" as="geometry" />
        </mxCell>
        <mxCell id="tL_yiyPzyIA1yR_fyeaR-0" value="output: SPECT_RAW" style="text;html=1;align=center;verticalAlign=middle;resizable=0;points=[];autosize=1;strokeColor=none;fillColor=none;" vertex="1" parent="WIyWlLk6GJQsqaUBKTNV-1">
          <mxGeometry x="360" y="1258" width="140" height="30" as="geometry" />
        </mxCell>
        <mxCell id="tL_yiyPzyIA1yR_fyeaR-1" value="&lt;b&gt;NonAC SPECT recon&lt;/b&gt;&lt;div&gt;&lt;div&gt;input: SPECT_RAW&lt;/div&gt;&lt;div&gt;output: SPECT_RECON_NAC&lt;/div&gt;&lt;/div&gt;" style="text;html=1;align=center;verticalAlign=middle;resizable=0;points=[];autosize=1;strokeColor=none;fillColor=none;" vertex="1" parent="WIyWlLk6GJQsqaUBKTNV-1">
          <mxGeometry x="470" y="1380" width="190" height="60" as="geometry" />
        </mxCell>
        <mxCell id="tL_yiyPzyIA1yR_fyeaR-2" value="CT gyűjtés" style="rounded=1;whiteSpace=wrap;html=1;" vertex="1" parent="WIyWlLk6GJQsqaUBKTNV-1">
          <mxGeometry x="520" y="1464" width="100" height="66" as="geometry" />
        </mxCell>
        <mxCell id="tL_yiyPzyIA1yR_fyeaR-4" value="&lt;div&gt;output: CT_RAW&lt;/div&gt;" style="text;html=1;align=center;verticalAlign=middle;resizable=0;points=[];autosize=1;strokeColor=none;fillColor=none;" vertex="1" parent="WIyWlLk6GJQsqaUBKTNV-1">
          <mxGeometry x="515" y="1528" width="110" height="30" as="geometry" />
        </mxCell>
        <mxCell id="tL_yiyPzyIA1yR_fyeaR-6" value="" style="endArrow=none;html=1;rounded=0;entryX=1;entryY=0;entryDx=0;entryDy=0;" edge="1" parent="WIyWlLk6GJQsqaUBKTNV-1">
          <mxGeometry width="50" height="50" relative="1" as="geometry">
            <mxPoint x="620" y="1684" as="sourcePoint" />
            <mxPoint x="620" y="1464" as="targetPoint" />
          </mxGeometry>
        </mxCell>
        <mxCell id="tL_yiyPzyIA1yR_fyeaR-7" value="CT rekon" style="rounded=1;whiteSpace=wrap;html=1;" vertex="1" parent="WIyWlLk6GJQsqaUBKTNV-1">
          <mxGeometry x="620" y="1530" width="140" height="66" as="geometry" />
        </mxCell>
        <mxCell id="tL_yiyPzyIA1yR_fyeaR-9" value="&lt;div&gt;input: CT_RAW&lt;/div&gt;&lt;div&gt;outut: CT_RECON&lt;/div&gt;" style="text;html=1;align=center;verticalAlign=middle;resizable=0;points=[];autosize=1;strokeColor=none;fillColor=none;" vertex="1" parent="WIyWlLk6GJQsqaUBKTNV-1">
          <mxGeometry x="620" y="1596" width="120" height="40" as="geometry" />
        </mxCell>
        <mxCell id="tL_yiyPzyIA1yR_fyeaR-10" value="" style="endArrow=none;html=1;rounded=0;entryX=1;entryY=0;entryDx=0;entryDy=0;" edge="1" parent="WIyWlLk6GJQsqaUBKTNV-1">
          <mxGeometry width="50" height="50" relative="1" as="geometry">
            <mxPoint x="760" y="1830" as="sourcePoint" />
            <mxPoint x="760" y="1528" as="targetPoint" />
          </mxGeometry>
        </mxCell>
        <mxCell id="tL_yiyPzyIA1yR_fyeaR-11" value="&lt;div&gt;Clari postfilter&lt;/div&gt;" style="rounded=1;whiteSpace=wrap;html=1;" vertex="1" parent="WIyWlLk6GJQsqaUBKTNV-1">
          <mxGeometry x="760" y="1730" width="180" height="60" as="geometry" />
        </mxCell>
        <mxCell id="tL_yiyPzyIA1yR_fyeaR-12" value="&lt;div&gt;Input: CT_RECON&lt;/div&gt;&lt;div&gt;Output: CT_RECON_POSTCLARI&lt;/div&gt;" style="text;html=1;align=center;verticalAlign=middle;resizable=0;points=[];autosize=1;strokeColor=none;fillColor=none;" vertex="1" parent="WIyWlLk6GJQsqaUBKTNV-1">
          <mxGeometry x="720" y="1794" width="210" height="40" as="geometry" />
        </mxCell>
        <mxCell id="tL_yiyPzyIA1yR_fyeaR-13" value="AC SPECT rekon" style="rounded=1;whiteSpace=wrap;html=1;" vertex="1" parent="WIyWlLk6GJQsqaUBKTNV-1">
          <mxGeometry x="760" y="1596" width="120" height="60" as="geometry" />
        </mxCell>
        <mxCell id="tL_yiyPzyIA1yR_fyeaR-14" value="&lt;div&gt;Input: SPECT_RAW, CT_RECON&lt;/div&gt;&lt;div&gt;Output: SPECT_RECON_AC&lt;/div&gt;&lt;div&gt;Megjegyzés: prioritást élvezzen a CT_RECON_POSTCLARI-val szemben&lt;/div&gt;" style="text;html=1;align=center;verticalAlign=middle;resizable=0;points=[];autosize=1;strokeColor=none;fillColor=none;" vertex="1" parent="WIyWlLk6GJQsqaUBKTNV-1">
          <mxGeometry x="625" y="1656" width="420" height="60" as="geometry" />
        </mxCell>
        <mxCell id="tL_yiyPzyIA1yR_fyeaR-15" value="Forrás:&amp;nbsp;&amp;nbsp;&lt;a href=&quot;https://confluence.mediso.com/pages/viewpage.action?pageId=334987753&quot;&gt;InterView WorkFlow Server Intended Use - InterView Products - Confluence&lt;/a&gt;&lt;div&gt;&lt;div&gt;UC1: SPECT/CT berenezésnél rutin&amp;nbsp;&lt;/div&gt;&lt;div&gt;&lt;br&gt;&lt;/div&gt;&lt;/div&gt;" style="text;html=1;align=center;verticalAlign=middle;resizable=0;points=[];autosize=1;strokeColor=none;fillColor=none;" vertex="1" parent="WIyWlLk6GJQsqaUBKTNV-1">
          <mxGeometry x="245" y="3" width="470" height="60" as="geometry" />
        </mxCell>
        <mxCell id="tL_yiyPzyIA1yR_fyeaR-50" value="" style="endArrow=none;html=1;rounded=0;" edge="1" parent="WIyWlLk6GJQsqaUBKTNV-1">
          <mxGeometry width="50" height="50" relative="1" as="geometry">
            <mxPoint x="218.57" y="1030" as="sourcePoint" />
            <mxPoint x="218.57" y="730" as="targetPoint" />
          </mxGeometry>
        </mxCell>
        <mxCell id="tL_yiyPzyIA1yR_fyeaR-53" value="Itt futhat 2 rekon egyszerre, vagy az egyiknek be kell fejeződni, hog ya másik indulhasson?" style="rhombus;whiteSpace=wrap;html=1;" vertex="1" parent="WIyWlLk6GJQsqaUBKTNV-1">
          <mxGeometry x="660" y="1390" width="170" height="130" as="geometry" />
        </mxCell>
      </root>
    </mxGraphModel>
  </diagram>
</mxfile>
